<svg version="1.1" id="Layer_1" xmlns="http://www.w3.org/2000/svg" xmlns:xlink="http://www.w3.org/1999/xlink" x="0px" y="0px"
	 width="100%" viewBox="0 0 440 416" enable-background="new 0 0 440 416" xml:space="preserve">
<path fill="#000000" opacity="1.000000" stroke="none" 
	d="
M43.000000,417.000000 
	C41.933323,417.000000 40.866650,417.000000 39.241158,416.655640 
	C26.377573,414.178223 15.908776,408.651215 7.586810,399.285706 
	C5.246739,396.652191 3.187858,393.768768 0.999997,391.000000 
	C1.000000,269.644012 1.000000,148.288055 1.062979,26.112110 
	C8.877471,13.424836 19.137514,4.849012 33.000000,1.000000 
	C156.355972,1.000000 279.711945,1.000000 403.861359,1.139312 
	C410.524139,4.298817 416.997498,6.536343 422.136932,10.502415 
	C432.776093,18.712627 439.262726,29.129345 439.228699,43.595776 
	C438.969208,153.999084 439.056915,264.403290 439.168304,374.807098 
	C439.174255,380.701721 437.768005,385.906769 434.922607,390.914886 
	C429.034485,401.278351 420.616394,408.762482 409.470947,412.972992 
	C405.097626,414.625092 400.497070,415.675537 396.000000,417.000000 
	C395.250000,417.000000 394.500000,417.000000 393.124329,416.656982 
	C391.179199,416.209442 389.859772,416.013489 388.540344,416.013306 
	C274.896729,415.999176 161.253082,415.996277 47.609474,416.041687 
	C46.072857,416.042297 44.536488,416.666748 43.000000,417.000000 
M155.910080,244.481064 
	C156.371170,227.938492 156.832260,211.395920 157.324539,193.734344 
	C158.175034,195.382690 158.574417,196.041977 158.869446,196.745056 
	C172.508408,229.246002 186.103104,261.765625 199.801788,294.241364 
	C202.242783,300.028229 203.698318,307.848755 208.176498,310.706024 
	C212.709808,313.598511 220.428589,311.498596 226.752060,311.585052 
	C226.918686,311.587341 227.127838,311.650909 227.245621,311.574982 
	C228.852661,310.538757 231.295456,309.844086 231.919327,308.378601 
	C244.488510,278.853424 256.904572,249.262451 269.212524,219.627014 
	C272.486603,211.743500 275.299866,203.668579 278.324738,195.681534 
	C278.530212,195.747696 278.735718,195.813843 278.941193,195.879990 
	C280.472809,234.372314 282.004395,272.864624 283.529022,311.181824 
	C294.398132,311.181824 304.300842,311.181824 314.552795,311.181824 
	C310.835938,247.977264 307.144012,185.196945 303.436432,122.150131 
	C296.257172,122.150131 289.752563,122.433693 283.288208,122.045990 
	C279.278046,121.805466 277.521179,123.204353 276.047638,126.881119 
	C260.829834,164.851654 245.426331,202.747818 230.041611,240.651321 
	C226.345474,249.757553 222.527588,258.814392 218.392380,268.794952 
	C211.652908,252.263626 205.270248,236.741974 198.991562,221.178375 
	C186.237946,189.564636 173.564911,157.918335 160.748917,126.329979 
	C160.098999,124.728027 158.469238,122.410110 157.206680,122.351761 
	C149.287598,121.985817 141.343231,122.166733 133.206436,122.166733 
	C129.469238,185.615524 125.772614,248.375732 122.072090,311.201874 
	C132.787979,311.201874 142.841019,311.201874 153.266296,311.201874 
	C154.148514,289.047852 155.016174,267.259521 155.910080,244.481064 
z"/>
<path fill="#F4F4F4" opacity="1.000000" stroke="none" 
	d="
M396.468658,417.000000 
	C400.497070,415.675537 405.097626,414.625092 409.470947,412.972992 
	C420.616394,408.762482 429.034485,401.278351 434.922607,390.914886 
	C437.768005,385.906769 439.174255,380.701721 439.168304,374.807098 
	C439.056915,264.403290 438.969208,153.999084 439.228699,43.595776 
	C439.262726,29.129345 432.776093,18.712627 422.136932,10.502415 
	C416.997498,6.536343 410.524139,4.298817 404.327393,1.139312 
	C416.322479,1.000000 428.644989,1.000000 440.949341,1.000000 
	C440.949341,139.666672 440.949341,278.333344 440.949341,417.000000 
	C426.244873,417.000000 411.591095,417.000000 396.468658,417.000000 
z"/>
<path fill="#FBFBFB" opacity="1.000000" stroke="none" 
	d="
M0.999997,391.468658 
	C3.187858,393.768768 5.246739,396.652191 7.586810,399.285706 
	C15.908776,408.651215 26.377573,414.178223 38.841171,416.655640 
	C26.420568,417.000000 13.841136,417.000000 1.000000,417.000000 
	C1.000000,408.647583 1.000000,400.292450 0.999997,391.468658 
z"/>
<path fill="#3F3F3F" opacity="1.000000" stroke="none" 
	d="
M43.468658,417.000000 
	C44.536488,416.666748 46.072857,416.042297 47.609474,416.041687 
	C161.253082,415.996277 274.896729,415.999176 388.540344,416.013306 
	C389.859772,416.013489 391.179199,416.209442 392.749329,416.656982 
	C276.645782,417.000000 160.291550,417.000000 43.468658,417.000000 
z"/>
<path fill="#F9F9F9" opacity="1.000000" stroke="none" 
	d="
M32.531342,1.000000 
	C19.137514,4.849012 8.877471,13.424836 1.062979,25.646069 
	C1.000000,17.731169 1.000000,9.462337 1.000000,1.000000 
	C11.353425,1.000000 21.708054,1.000000 32.531342,1.000000 
z"/>
<path fill="#FC3030" opacity="1.000000" stroke="none" 
	d="
M155.896957,244.976135 
	C155.016174,267.259521 154.148514,289.047852 153.266296,311.201874 
	C142.841019,311.201874 132.787979,311.201874 122.072090,311.201874 
	C125.772614,248.375732 129.469238,185.615524 133.206436,122.166733 
	C141.343231,122.166733 149.287598,121.985817 157.206680,122.351761 
	C158.469238,122.410110 160.098999,124.728027 160.748917,126.329979 
	C173.564911,157.918335 186.237946,189.564636 198.991562,221.178375 
	C205.270248,236.741974 211.652908,252.263626 218.392380,268.794952 
	C222.527588,258.814392 226.345474,249.757553 230.041611,240.651321 
	C245.426331,202.747818 260.829834,164.851654 276.047638,126.881119 
	C277.521179,123.204353 279.278046,121.805466 283.288208,122.045990 
	C289.752563,122.433693 296.257172,122.150131 303.436432,122.150131 
	C307.144012,185.196945 310.835938,247.977264 314.552795,311.181824 
	C304.300842,311.181824 294.398132,311.181824 283.529022,311.181824 
	C282.004395,272.864624 280.472809,234.372314 278.941193,195.879990 
	C278.735718,195.813843 278.530212,195.747696 278.324738,195.681534 
	C275.299866,203.668579 272.486603,211.743500 269.212524,219.627014 
	C256.904572,249.262451 244.488510,278.853424 231.919327,308.378601 
	C231.295456,309.844086 228.852661,310.538757 227.245621,311.574982 
	C227.127838,311.650909 226.918686,311.587341 226.752060,311.585052 
	C220.428589,311.498596 212.709808,313.598511 208.176498,310.706024 
	C203.698318,307.848755 202.242783,300.028229 199.801788,294.241364 
	C186.103104,261.765625 172.508408,229.246002 158.869446,196.745056 
	C158.574417,196.041977 158.175034,195.382690 157.324539,193.734344 
	C156.832260,211.395920 156.371170,227.938492 155.896957,244.976135 
z"/>
</svg>